PathFileType	4	(x/y/z)	S02_P20_T24
DataRate	CameraRate	NumFrames	NumMarkers	Units	OrigDataRate	OrigDataStartFrame	OrigNumFrames
240	240	8	51	mm	240	89	353
Frame#	Time	Sternum			R.Acromium			L.Acromium			Top.Head			R.ASIS			L.ASIS			R.PSIS			L.PSIS			R.Great.Tro			L.Great.Tro			R.Iliac.Crest			L.Iliac.Crest			V.Sacral			R.Thigh.Upper.Post			R.Thigh.Lower.Ant			R.Thigh.Lower.Post			R.Thigh.Upper.Ant			R.Knee.Lat			R.Knee.Med			R.Shank.Upper.Post			R.Shank.Lower.Ant			R.Shank.Lower.Post			R.Shank.Upper.Ant			R.Ankle.Lat			R.Ankle.Med			R.Heel.Upper			R.Heel.Med			R.Heel.Lat			R.Toe.Lat			R.Toe.Med			R.Toe.Tip			L.Thigh.Upper.Post			L.Thigh.Lower.Ant			L.Thigh.Lower.Post			L.Thigh.Upper.Ant			L.Knee.Lat			L.Knee.Med			L.Shank.Upper.Post			L.Shank.Lower.Ant			L.Shank.Lower.Post			L.Shank.Upper.Ant			L.Ankle.Lat			L.Ankle.Med			L.Heel.Upper			L.Heel.Med			L.Heel.Lat			L.Toe.Lat			L.Toe.Med			L.Toe.Tip			Cervical.Spine			Back			
		X1	Y1	Z1	X2	Y2	Z2	X3	Y3	Z3	X4	Y4	Z4	X5	Y5	Z5	X6	Y6	Z6	X7	Y7	Z7	X8	Y8	Z8	X9	Y9	Z9	X10	Y10	Z10	X11	Y11	Z11	X12	Y12	Z12	X13	Y13	Z13	X14	Y14	Z14	X15	Y15	Z15	X16	Y16	Z16	X17	Y17	Z17	X18	Y18	Z18	X19	Y19	Z19	X20	Y20	Z20	X21	Y21	Z21	X22	Y22	Z22	X23	Y23	Z23	X24	Y24	Z24	X25	Y25	Z25	X26	Y26	Z26	X27	Y27	Z27	X28	Y28	Z28	X29	Y29	Z29	X30	Y30	Z30	X31	Y31	Z31	X32	Y32	Z32	X33	Y33	Z33	X34	Y34	Z34	X35	Y35	Z35	X36	Y36	Z36	X37	Y37	Z37	X38	Y38	Z38	X39	Y39	Z39	X40	Y40	Z40	X41	Y41	Z41	X42	Y42	Z42	X43	Y43	Z43	X44	Y44	Z44	X45	Y45	Z45	X46	Y46	Z46	X47	Y47	Z47	X48	Y48	Z48	X49	Y49	Z49	X50	Y50	Z50	X51	Y51	Z51	

89	0.36667	-832.32	1111.7	324.02	-956.23	1347	454.52	-921.05	1346.9	161.5	-866.32	1627.3	302.34	-875.42	942.12	412.29	-864.35	922.79	204.77	-1082.2	976.09	363.2	-1090.4	981.05	290.64	-930.07	834.35	511.45	-1002.4	840.57	124.07	-972.38	988.36	471.64	-986.76	974.67	142	-1111.9	930.25	322.43	-833.58	645.32	503.52	-746.87	599.62	473.33	-808.07	560.7	483.48	-776.89	683.07	489.87	-761.85	498.33	470.9	-752.81	490.15	329.68	-852.61	302.74	446.78	-784.4	216.26	435.57	-851.76	229.77	437.42	-781.76	284.24	452.19	-842.53	132.36	426.23	-822.79	152.38	342.89	-898.56	131.1	365.06	-885.33	101.96	334.52	-903.37	95.477	395.81	-751.77	58.856	451.31	-708.32	62.443	348.81	-665.09	75.33	411.66	-1058.7	619.54	158.66	-993.82	530.01	164	-1071.6	532.26	182.52	-988.24	622.6	140.99	-1023.9	452.21	178.03	-1024.8	453.21	317.69	-1127.2	296.67	183.62	-1073	200.52	202.97	NaN	NaN	NaN	-1069.4	274.18	185.17	-1131.6	104.23	220.61	-1118.2	101.03	301.59	-1191.8	71.41	255.68	-1183.5	45.321	288.02	-1187	44.544	226.52	-1021.2	35.252	194.89	-999.17	44.235	305.25	-938.34	58.454	256.89	-1011.1	1406.5	298.76	-1088.8	1155.9	295.6
90	0.37083	-827.12	1110.8	324.09	-951.07	1346.1	454.64	-915.62	1346.1	161.68	-861.1	1626.4	302.59	-870.11	941.24	412.32	-859.44	921.82	204.78	-1077	975.11	363.72	-1085.6	980.06	291.16	-924.2	833.83	511.74	-997.95	840.12	124.05	-967.01	987.46	471.84	-981.98	973.69	142.24	-1106.8	929.23	323.06	-827.83	644.61	503.05	-741.3	599.01	472.29	-802.36	560	482.84	-771.32	682.42	488.99	-755.77	497.94	469.94	-748	489.48	328.66	-841.37	299.85	446.63	-770.79	215.27	435.16	-838.45	226.92	437.25	-770.03	283.37	451.7	-826.59	129.69	426.11	-807.25	149.92	342.74	-882.67	126.7	365.01	-868.63	97.815	334.56	-886.45	91.067	395.88	-733.82	58.75	451.4	-690.63	63.133	348.79	-647.69	77.378	411.54	-1055.9	619.69	158.86	-991.68	529.67	164.01	-1069.4	532.51	182.69	-985.44	622.21	141.04	-1022.3	452.02	178.01	-1023.2	452.96	317.62	-1126.4	296.89	183.73	-1072.5	200.51	203.06	NaN	NaN	NaN	-1068.6	274.16	185.26	-1131.5	104.39	220.75	-1117.9	101.09	301.78	-1191.7	71.543	255.84	-1183.4	45.415	288.13	-1187	44.707	226.66	-1021.2	35.235	194.9	-999.15	44.166	305.29	-938.33	58.32	256.9	-1005.7	1405.7	298.86	-1083.5	1155.1	295.53
91	0.375	-821.9	1109.8	324.18	-945.89	1345.1	454.77	-910.14	1345.2	161.87	-855.87	1625.5	302.86	-864.77	940.29	412.38	-854.51	920.78	204.81	-1071.7	974.09	364.22	-1080.8	979.03	291.67	-918.36	833.21	512.03	-993.53	839.65	124.03	-961.62	986.49	472.04	-977.16	972.66	142.47	-1101.7	928.16	323.66	-822.07	643.81	502.6	-735.75	598.29	471.23	-796.65	559.2	482.25	-765.76	681.67	488.05	-749.74	497.44	469.01	-743.29	488.64	327.63	-830.2	297.04	446.48	-757.37	214.39	434.76	-825.26	224.2	437.09	-758.45	282.57	451.23	-810.78	127.19	426.01	-791.84	147.59	342.62	-866.9	122.49	364.99	-852.06	93.872	334.62	-869.64	86.868	395.98	-716.09	58.84	451.46	-673.21	63.996	348.74	-630.58	79.588	411.39	-1053	619.8	159.05	-989.45	529.3	164.03	-1067.1	532.72	182.85	-982.55	621.79	141.08	-1020.6	451.8	177.99	-1021.6	452.71	317.56	-1125.5	297.11	183.84	-1072	200.48	203.16	NaN	NaN	NaN	-1067.8	274.11	185.34	-1131.4	104.54	220.88	-1117.6	101.16	301.98	-1191.6	71.677	255.98	-1183.3	45.512	288.24	-1187.1	44.869	226.8	-1021.2	35.217	194.9	-999.12	44.099	305.33	-938.33	58.182	256.91	-1000.3	1404.7	298.97	-1078.2	1154.2	295.49
92	0.37917	-816.67	1108.7	324.28	-940.68	1344	454.91	-904.6	1344.2	162.08	-850.63	1624.5	303.16	-859.41	939.27	412.46	-849.56	919.68	204.87	-1066.5	973.01	364.71	-1076	977.96	292.16	-912.52	832.47	512.31	-989.1	839.17	124.02	-956.23	985.46	472.25	-972.31	971.6	142.71	-1096.6	927.06	324.24	-816.28	642.94	502.18	-730.23	597.45	470.13	-790.94	558.3	481.71	-760.19	680.82	487.04	-743.74	496.82	468.12	-738.66	487.64	326.6	-819.13	294.33	446.34	-744.15	213.61	434.38	-812.21	221.62	436.95	-747.04	281.82	450.78	-795.16	124.87	425.91	-776.61	145.4	342.5	-851.28	118.47	364.99	-835.66	90.127	334.71	-852.99	82.88	396.11	-698.62	59.118	451.52	-656.1	65.022	348.65	-613.78	81.948	411.18	-1050	619.86	159.21	-987.11	528.89	164.05	-1064.7	532.88	183.01	-979.58	621.33	141.12	-1018.8	451.55	177.98	-1019.9	452.45	317.5	-1124.5	297.31	183.95	-1071.5	200.42	203.26	NaN	NaN	NaN	-1066.8	274.05	185.41	-1131.3	104.71	221.01	-1117.4	101.23	302.17	-1191.6	71.813	256.12	-1183.3	45.615	288.35	-1187.1	45.03	226.93	-1021.2	35.196	194.91	-999.09	44.034	305.36	-938.32	58.042	256.92	-994.89	1403.8	299.1	-1072.9	1153.2	295.46
93	0.38333	-811.41	1107.6	324.4	-935.44	1342.9	455.07	-899.02	1343	162.31	-845.38	1623.5	303.47	-854.02	938.18	412.57	-844.58	918.51	204.94	-1061.2	971.88	365.18	-1071.2	976.85	292.63	-906.7	831.63	512.59	-984.66	838.67	124.03	-950.82	984.38	472.46	-967.43	970.5	142.95	-1091.5	925.92	324.8	-810.46	641.99	501.8	-724.71	596.52	469	-785.21	557.31	481.23	-754.62	679.89	485.98	-737.76	496.1	467.26	-734.1	486.49	325.57	-808.19	291.71	446.2	-731.17	212.93	434.01	-799.35	219.19	436.81	-735.81	281.13	450.37	-779.75	122.72	425.82	-761.6	143.36	342.39	-835.86	114.63	365.02	-819.48	86.576	334.81	-836.53	79.1	396.27	-681.45	59.57	451.55	-639.34	66.2	348.54	-597.34	84.444	410.93	-1046.9	619.87	159.36	-984.66	528.45	164.07	-1062.2	533	183.16	-976.5	620.83	141.15	-1016.9	451.26	177.97	-1018.1	452.18	317.45	-1123.4	297.51	184.05	-1070.9	200.33	203.36	NaN	NaN	NaN	-1065.8	273.98	185.46	-1131.2	104.88	221.14	-1117.1	101.31	302.35	-1191.5	71.952	256.25	-1183.2	45.723	288.44	-1187.1	45.19	227.06	-1021.2	35.174	194.92	-999.05	43.971	305.38	-938.31	57.901	256.92	-989.48	1402.8	299.25	-1067.6	1152.2	295.46
94	0.3875	-806.14	1106.3	324.55	-930.16	1341.7	455.23	-893.39	1341.9	162.56	-840.12	1622.4	303.81	-848.62	937.03	412.71	-839.58	917.28	205.03	-1055.9	970.7	365.64	-1066.4	975.7	293.1	-900.9	830.68	512.85	-980.2	838.14	124.05	-945.4	983.23	472.68	-962.51	969.36	143.19	-1086.3	924.74	325.33	-804.59	640.98	501.45	-719.2	595.51	467.85	-779.46	556.25	480.81	-749.03	678.88	484.87	-731.8	495.29	466.45	-729.61	485.21	324.55	-797.39	289.19	446.06	-718.44	212.33	433.67	-786.69	216.89	436.68	-724.8	280.48	449.98	-764.6	120.73	425.73	-746.87	141.45	342.29	-820.67	110.98	365.07	-803.56	83.217	334.94	-820.32	75.524	396.45	-664.61	60.182	451.56	-622.95	67.512	348.38	-581.29	87.056	410.62	-1043.7	619.82	159.49	-982.09	527.98	164.1	-1059.6	533.06	183.3	-973.33	620.29	141.19	-1014.8	450.93	177.97	-1016.2	451.91	317.41	-1122.3	297.7	184.16	-1070.3	200.22	203.47	NaN	NaN	NaN	-1064.7	273.9	185.5	-1131	105.05	221.27	-1116.8	101.4	302.52	-1191.4	72.095	256.37	-1183.2	45.839	288.54	-1187.1	45.352	227.17	-1021.2	35.149	194.92	-999.01	43.91	305.41	-938.3	57.76	256.93	-984.05	1401.7	299.42	-1062.3	1151.2	295.48
95	0.39167	-800.86	1105	324.71	-924.86	1340.5	455.41	-887.73	1340.6	162.83	-834.86	1621.3	304.16	-843.19	935.83	412.86	-834.55	915.99	205.13	-1050.6	969.47	366.08	-1061.5	974.51	293.56	-895.11	829.63	513.1	-975.73	837.59	124.09	-939.97	982.04	472.91	-957.56	968.2	143.43	-1081.2	923.52	325.85	-798.68	639.91	501.13	-713.68	594.41	466.67	-773.67	555.12	480.44	-743.41	677.81	483.7	-725.85	494.4	465.69	-725.18	483.79	323.54	-786.77	286.77	445.92	-706	211.82	433.34	-774.28	214.73	436.55	-714.02	279.88	449.63	-749.74	118.9	425.65	-732.47	139.68	342.2	-805.77	107.5	365.15	-787.94	80.043	335.07	-804.39	72.148	396.66	-648.16	60.935	451.54	-606.99	68.937	348.19	-565.67	89.76	410.25	-1040.4	619.71	159.61	-979.39	527.46	164.14	-1056.9	533.06	183.45	-970.05	619.7	141.22	-1012.6	450.57	177.97	-1014.2	451.61	317.39	-1121	297.87	184.26	-1069.7	200.08	203.57	NaN	NaN	NaN	-1063.4	273.8	185.52	-1130.9	105.24	221.38	-1116.6	101.5	302.69	-1191.4	72.243	256.48	-1183.1	45.965	288.62	-1187.2	45.516	227.28	-1021.2	35.122	194.93	-998.96	43.85	305.42	-938.28	57.619	256.93	-978.62	1400.6	299.62	-1057.1	1150.1	295.53
96	0.39583	-795.55	1103.6	324.9	-919.52	1339.3	455.6	-882.04	1339.2	163.12	-829.58	1620.1	304.54	-837.73	934.58	413.03	-829.5	914.65	205.23	-1045.2	968.21	366.52	-1056.5	973.3	294.01	-889.33	828.48	513.33	-971.24	837	124.16	-934.53	980.79	473.15	-952.58	967	143.68	-1076	922.28	326.34	-792.71	638.79	500.85	-708.15	593.26	465.46	-767.85	553.93	480.12	-737.78	676.68	482.49	-719.89	493.42	464.96	-720.79	482.26	322.54	-776.35	284.45	445.77	-693.87	211.37	433.03	-762.14	212.69	436.41	-703.48	279.32	449.3	-735.22	117.21	425.57	-718.43	138.03	342.1	-791.18	104.2	365.25	-772.68	77.046	335.23	-788.81	68.964	396.88	-632.12	61.808	451.49	-591.48	70.453	347.95	-550.5	92.531	409.83	-1037	619.54	159.71	-976.57	526.9	164.18	-1054	533	183.59	-966.66	619.07	141.25	-1010.3	450.16	177.99	-1012	451.28	317.37	-1119.7	298.04	184.35	-1069	199.92	203.66	NaN	NaN	NaN	-1062.1	273.68	185.52	-1130.8	105.44	221.49	-1116.3	101.6	302.84	-1191.3	72.4	256.57	-1183.1	46.102	288.69	-1187.2	45.684	227.37	-1021.2	35.092	194.94	-998.92	43.792	305.44	-938.26	57.478	256.93	-973.17	1399.5	299.83	-1051.8	1149.1	295.6
